<svg id="Schedule" xmlns="http://www.w3.org/2000/svg" width="512" height="512" viewBox="0 0 512 512">
  <g id="Group_2" data-name="Group 2">
    <g id="Group_1" data-name="Group 1">
      <path id="Path_15" data-name="Path 15" d="M460.8,51.2H435.2V34.133a34.133,34.133,0,1,0-68.266,0V51.2h-76.8V34.133a34.133,34.133,0,0,0-68.267,0V51.2h-76.8V34.133a34.133,34.133,0,0,0-68.267,0V51.2H51.2A51.251,51.251,0,0,0,0,102.4V460.8A51.251,51.251,0,0,0,51.2,512H460.8A51.251,51.251,0,0,0,512,460.8V102.4A51.251,51.251,0,0,0,460.8,51.2ZM384,34.133a17.067,17.067,0,1,1,34.134,0v51.2a17.067,17.067,0,1,1-34.134,0Zm-145.067,0a17.067,17.067,0,1,1,34.134,0v51.2a17.067,17.067,0,0,1-34.134,0v-51.2Zm-145.066,0a17.067,17.067,0,1,1,34.133,0v51.2a17.067,17.067,0,1,1-34.134,0v-51.2ZM494.933,460.8A34.133,34.133,0,0,1,460.8,494.933H51.2A34.133,34.133,0,0,1,17.067,460.8V170.667H469.334a8.533,8.533,0,0,0,0-17.066H17.067V102.4A34.133,34.133,0,0,1,51.2,68.268H76.8V85.335a34.133,34.133,0,0,0,68.266,0V68.267h76.8V85.334a34.133,34.133,0,1,0,68.266,0V68.267h76.8V85.334a34.133,34.133,0,1,0,68.266,0V68.267h25.6A34.133,34.133,0,0,1,494.931,102.4V460.8Z" fill="#1d3557"/>
      <path id="Path_16" data-name="Path 16" d="M358.4,250.163a20.019,20.019,0,0,0-19.9-19.669l-18.4-.094a23.824,23.824,0,0,0-17.749,7.219l-24.166,27.87L184.9,253.338a8.576,8.576,0,0,0-1.468-.06,15.2,15.2,0,0,0-14.046,11.742,13.338,13.338,0,0,0,5.973,14.788l57.045,38.4L215.6,336.29l-33.2-1.024a18.006,18.006,0,0,0-19.132,11.793,18.56,18.56,0,0,0,7.4,21.99l9.591,6.229L173.225,387.8A19.917,19.917,0,0,0,200.2,414.864l12.049-6.528,6.468,10.112a18.331,18.331,0,0,0,15.275,8.218,19.065,19.065,0,0,0,6.281-1.084,18.109,18.109,0,0,0,12.314-18.449l-.6-34.4,18.287-16.9L308.446,412a13.577,13.577,0,0,0,15.181,6.622,15.361,15.361,0,0,0,11.87-13.935,9.146,9.146,0,0,0-.06-1.6L323.226,310.22l28.348-24.277A23.407,23.407,0,0,0,358.4,268.8V250.163Zm-17.067,18.816a6.622,6.622,0,0,1-1.306,4.429l-31.573,26.965a8.635,8.635,0,0,0-2.893,6.289,8.489,8.489,0,0,0,.265,2.364l11.23,85.376-38.263-56.32a8.534,8.534,0,0,0-6.084-3.678,8.4,8.4,0,0,0-6.758,2.2l-28.373,26.206a8.532,8.532,0,0,0-2.748,6.417l.708,38.784a1.254,1.254,0,0,1-.947,1.493,1.237,1.237,0,0,1-1.613-.4l-10.633-16.64a8.534,8.534,0,0,0-11.264-2.91L192.06,399.872a2.833,2.833,0,0,1-3.345-.5,2.752,2.752,0,0,1-.853-1.988,2.716,2.716,0,0,1,.282-1.289l10.889-19.456a8.533,8.533,0,0,0-2.765-11.324l-16.213-10.5a1.588,1.588,0,0,1-.785-1.946c.213-.6.512-.751,1.911-.631l37.726,1.2a8.036,8.036,0,0,0,6.519-2.714l26.308-28.245a8.534,8.534,0,0,0-1.494-12.894l-56.32-37.862,85.658,11.145a8.43,8.43,0,0,0,8.533-2.679l26.752-30.933a7.21,7.21,0,0,1,5.035-1.783l18.569.094a2.919,2.919,0,0,1,2.867,2.8v18.617Z" fill="#21a0a0"/>
    </g>
  </g>
</svg>
